<?xml version="1.0" standalone="no"?>
<!DOCTYPE svg PUBLIC "-//W3C//DTD SVG 20010904//EN"
 "http://www.w3.org/TR/2001/REC-SVG-20010904/DTD/svg10.dtd">
<svg version="1.0" xmlns="http://www.w3.org/2000/svg"
 width="500.000000pt" height="500.000000pt" viewBox="0 0 500.000000 500.000000"
 preserveAspectRatio="xMidYMid meet">
<metadata>
Created by potrace 1.11, written by Peter Selinger 2001-2013
</metadata>
<g transform="translate(0.000000,500.000000) scale(0.100000,-0.100000)"
fill="#000000" stroke="none">
<path d="M0 2500 l0 -2500 2500 0 2500 0 0 2500 0 2500 -2500 0 -2500 0 0
-2500z m2815 2430 c553 -75 1034 -310 1416 -690 207 -207 343 -396 470 -655
166 -340 237 -631 246 -1010 10 -397 -56 -724 -216 -1076 -92 -202 -243 -437
-376 -584 l-36 -40 35 65 c37 69 106 232 106 249 0 8 -118 11 -375 11 l-375 0
-29 -64 c-75 -165 -181 -263 -326 -301 -125 -32 -228 -11 -307 63 -103 96
-133 201 -125 442 9 257 61 444 169 606 60 90 124 148 208 188 59 28 74 31
165 31 89 0 106 -3 157 -28 109 -54 174 -161 185 -304 l6 -73 373 0 374 0 0
43 c0 56 -17 168 -35 241 -81 318 -310 529 -665 613 -145 34 -407 43 -566 19
-130 -19 -243 -47 -327 -82 -33 -13 -62 -22 -64 -21 -2 2 22 41 53 87 138 206
222 451 255 739 14 131 6 379 -16 481 -78 356 -322 570 -706 620 -226 29 -476
-4 -647 -86 -66 -32 -83 -47 -185 -164 -61 -71 -113 -127 -114 -126 -3 2 40
250 52 303 l5 23 -277 2 -278 3 120 80 c351 236 737 369 1185 409 75 7 380 -2
465 -14z m-2031 -727 c-10 -42 -474 -2660 -474 -2675 0 -95 -127 257 -174 481
-40 192 -50 295 -50 511 0 239 16 367 74 597 98 386 313 782 569 1046 30 31
56 57 57 57 1 0 0 -8 -2 -17z m1320 -228 c146 -31 243 -134 281 -297 57 -249
1 -561 -138 -776 -126 -194 -309 -294 -507 -279 -241 19 -370 175 -370 447 0
91 32 289 66 410 77 272 237 448 450 494 89 19 133 19 218 1z m-799 -1640 c26
-60 57 -119 69 -131 32 -29 170 -72 289 -90 126 -20 384 -13 497 11 69 15 187
51 234 70 12 5 -1 -20 -38 -72 -189 -270 -284 -648 -247 -986 49 -446 309
-723 763 -812 184 -37 509 -29 695 15 41 10 71 14 66 9 -18 -18 -235 -110
-349 -148 -276 -91 -517 -126 -829 -118 -221 5 -347 22 -543 72 -322 81 -668
255 -929 466 -104 84 -284 265 -363 364 -65 82 -220 312 -220 327 0 4 144 8
319 8 246 0 320 3 323 13 3 6 49 263 104 569 54 306 102 554 105 550 4 -4 28
-56 54 -117z"/>
</g>
</svg>
