<svg version="1" xmlns="http://www.w3.org/2000/svg" width="666.667" height="666.667" viewBox="0 0 500.000000 500.000000"><path d="M222 6.5c-34.3 4.2-71 16.9-98.5 34.2l-6 3.8 9.2.3 9.3.3.2 16.6.3 16.6 8.7-13.1c8.7-13.1 8.7-13.1 16-16.6 22.4-10.8 59-12.4 83.8-3.8 29.5 10.2 51.3 35.8 59.9 69.9 3.2 12.8 4.1 21.3 4.1 38.6 0 37.6-8.9 64-30.4 90.3l-2.6 3.2 8-3.5c18.3-7.9 42-11.4 63.8-9.5 47.4 4.2 81.3 29.3 92.7 68.7 1.3 4.7 2.7 11.5 3.1 15l.7 6.5h-73l-.6-4.8c-.7-6.3-4.1-15.1-8-20.9-6.4-9.6-16-14.3-28.8-14.3-17.6 0-30.1 11.2-35.8 32-3.3 11.7-4.6 31.4-3.3 47.2 2.5 29.4 10.2 45.7 25 52.6 4.9 2.3 7.1 2.7 14.7 2.7 7.8 0 9.7-.4 14.7-2.8 9.5-4.7 16.8-14.5 20.4-27.6l1.7-6.1h36.9c20.2 0 36.8.3 36.8.7 0 .5-.9 4.4-1.9 8.8-2.9 12.2-2.9 12.2 10.7-8.1 57.5-85.3 53.9-198.5-8.7-281.9-9.5-12.6-28.7-32.4-41.1-42.4-36.6-29.4-81.1-47.9-128.2-53-12.7-1.4-40.6-1.2-53.8.4z"/><path d="M170 91.5c-15.9 4.5-27.1 17.6-31.7 37.2-2.6 11.3-2.6 49.8 0 59.2C145.1 212 160.8 225 183 225c24.4-.1 41.1-16 47.7-45.4 2.3-10.4 2.3-34.8-.1-45.1-4.2-18.9-14.9-34.2-28.5-40.7-5.8-2.8-7.8-3.2-16.6-3.5-6.8-.2-11.7.2-15.5 1.2z"/><path d="M52.9 106.3C30.2 137.9 15.5 174.1 9.3 213c-2.5 16.3-2.5 55.9 0 71.5 9.2 55.8 33.1 101.7 72.8 140 66.8 64.4 165.3 85.3 251.8 53.5 12-4.4 22.4-9 21.9-9.6-.3-.2-5.8.1-12.3.7-14.5 1.4-31.8 0-45.7-3.5-54.4-13.8-84.3-60.5-79.6-124.1 2-27.5 12.1-53.3 27.4-70.4 2.4-2.7 4.4-5.1 4.4-5.4 0-.3-1.9.3-4.2 1.3-7.7 3.4-21.3 6.8-31.6 8-16.2 1.9-39-.8-55-6.6l-7.2-2.6-7.8-12.6-7.7-12.5-.3 56.1-.2 56.2H61V225c0-70.4-.3-128-.7-128-.5 0-3.8 4.2-7.4 9.3z"/></svg>